<mxfile host="app.diagrams.net" modified="2023-04-18T17:00:44.335Z" agent="Mozilla/5.0 (Windows NT 10.0; Win64; x64) AppleWebKit/537.36 (KHTML, like Gecko) Chrome/112.0.0.0 Safari/537.36" etag="M20qci26zcMDg-E_XJI-" version="21.1.7" type="device">
  <diagram name="PÃ¡gina-1" id="tlvGj0p0CNhPm1_da6hX">
    <mxGraphModel dx="1633" dy="545" grid="1" gridSize="10" guides="1" tooltips="1" connect="1" arrows="1" fold="1" page="1" pageScale="1" pageWidth="583" pageHeight="827" math="0" shadow="0">
      <root>
        <mxCell id="0" />
        <mxCell id="1" parent="0" />
        <mxCell id="Z_P1tSKo5s2avDaVLByz-1" value="&amp;lt;&amp;lt;interface&amp;gt;&amp;gt;&lt;br&gt;TextReaderInterface" style="swimlane;fontStyle=1;align=center;verticalAlign=middle;childLayout=stackLayout;horizontal=1;startSize=29;horizontalStack=0;resizeParent=1;resizeParentMax=0;resizeLast=0;collapsible=0;marginBottom=0;html=1;whiteSpace=wrap;" vertex="1" parent="1">
          <mxGeometry x="222" y="80" width="140" height="70" as="geometry" />
        </mxCell>
        <mxCell id="Z_P1tSKo5s2avDaVLByz-2" value="+hasNext()&lt;br&gt;+next()" style="text;html=1;strokeColor=none;fillColor=none;align=left;verticalAlign=middle;spacingLeft=4;spacingRight=4;overflow=hidden;rotatable=0;points=[[0,0.5],[1,0.5]];portConstraint=eastwest;whiteSpace=wrap;" vertex="1" parent="Z_P1tSKo5s2avDaVLByz-1">
          <mxGeometry y="29" width="140" height="41" as="geometry" />
        </mxCell>
        <mxCell id="Z_P1tSKo5s2avDaVLByz-6" style="edgeStyle=orthogonalEdgeStyle;rounded=0;orthogonalLoop=1;jettySize=auto;html=1;entryX=0.343;entryY=1;entryDx=0;entryDy=0;entryPerimeter=0;dashed=1;" edge="1" parent="1" source="Z_P1tSKo5s2avDaVLByz-4" target="Z_P1tSKo5s2avDaVLByz-2">
          <mxGeometry relative="1" as="geometry" />
        </mxCell>
        <mxCell id="Z_P1tSKo5s2avDaVLByz-23" style="edgeStyle=orthogonalEdgeStyle;rounded=0;orthogonalLoop=1;jettySize=auto;html=1;entryX=0;entryY=0.25;entryDx=0;entryDy=0;startArrow=diamondThin;startFill=0;startSize=14;" edge="1" parent="1" source="Z_P1tSKo5s2avDaVLByz-4" target="Z_P1tSKo5s2avDaVLByz-1">
          <mxGeometry relative="1" as="geometry">
            <Array as="points">
              <mxPoint x="40" y="235" />
              <mxPoint x="40" y="98" />
            </Array>
          </mxGeometry>
        </mxCell>
        <mxCell id="Z_P1tSKo5s2avDaVLByz-4" value="TextReaderDecorator" style="swimlane;fontStyle=1;align=center;verticalAlign=middle;childLayout=stackLayout;horizontal=1;startSize=29;horizontalStack=0;resizeParent=1;resizeParentMax=0;resizeLast=0;collapsible=0;marginBottom=0;html=1;whiteSpace=wrap;" vertex="1" parent="1">
          <mxGeometry x="90" y="200" width="140" height="70" as="geometry" />
        </mxCell>
        <mxCell id="Z_P1tSKo5s2avDaVLByz-5" value="+hasNext()&lt;br&gt;+next()" style="text;html=1;strokeColor=none;fillColor=none;align=left;verticalAlign=middle;spacingLeft=4;spacingRight=4;overflow=hidden;rotatable=0;points=[[0,0.5],[1,0.5]];portConstraint=eastwest;whiteSpace=wrap;" vertex="1" parent="Z_P1tSKo5s2avDaVLByz-4">
          <mxGeometry y="29" width="140" height="41" as="geometry" />
        </mxCell>
        <mxCell id="Z_P1tSKo5s2avDaVLByz-10" style="edgeStyle=orthogonalEdgeStyle;rounded=0;orthogonalLoop=1;jettySize=auto;html=1;dashed=1;" edge="1" parent="1" source="Z_P1tSKo5s2avDaVLByz-7" target="Z_P1tSKo5s2avDaVLByz-2">
          <mxGeometry relative="1" as="geometry">
            <Array as="points">
              <mxPoint x="420" y="170" />
              <mxPoint x="292" y="170" />
            </Array>
          </mxGeometry>
        </mxCell>
        <mxCell id="Z_P1tSKo5s2avDaVLByz-7" value="TextReader" style="swimlane;fontStyle=1;align=center;verticalAlign=middle;childLayout=stackLayout;horizontal=1;startSize=29;horizontalStack=0;resizeParent=1;resizeParentMax=0;resizeLast=0;collapsible=0;marginBottom=0;html=1;whiteSpace=wrap;" vertex="1" parent="1">
          <mxGeometry x="350" y="200" width="140" height="70" as="geometry" />
        </mxCell>
        <mxCell id="Z_P1tSKo5s2avDaVLByz-8" value="+hasNext()&lt;br&gt;+next()" style="text;html=1;strokeColor=none;fillColor=none;align=left;verticalAlign=middle;spacingLeft=4;spacingRight=4;overflow=hidden;rotatable=0;points=[[0,0.5],[1,0.5]];portConstraint=eastwest;whiteSpace=wrap;" vertex="1" parent="Z_P1tSKo5s2avDaVLByz-7">
          <mxGeometry y="29" width="140" height="41" as="geometry" />
        </mxCell>
        <mxCell id="Z_P1tSKo5s2avDaVLByz-20" style="edgeStyle=orthogonalEdgeStyle;rounded=0;orthogonalLoop=1;jettySize=auto;html=1;" edge="1" parent="1" source="Z_P1tSKo5s2avDaVLByz-11" target="Z_P1tSKo5s2avDaVLByz-5">
          <mxGeometry relative="1" as="geometry">
            <Array as="points">
              <mxPoint x="150" y="290" />
              <mxPoint x="150" y="290" />
            </Array>
          </mxGeometry>
        </mxCell>
        <mxCell id="Z_P1tSKo5s2avDaVLByz-11" value="NormalizationFilter" style="swimlane;fontStyle=1;align=center;verticalAlign=middle;childLayout=stackLayout;horizontal=1;startSize=29;horizontalStack=0;resizeParent=1;resizeParentMax=0;resizeLast=0;collapsible=0;marginBottom=0;html=1;whiteSpace=wrap;" vertex="1" parent="1">
          <mxGeometry x="80" y="344" width="140" height="70" as="geometry" />
        </mxCell>
        <mxCell id="Z_P1tSKo5s2avDaVLByz-12" value="+hasNext()&lt;br&gt;+next()" style="text;html=1;strokeColor=none;fillColor=none;align=left;verticalAlign=middle;spacingLeft=4;spacingRight=4;overflow=hidden;rotatable=0;points=[[0,0.5],[1,0.5]];portConstraint=eastwest;whiteSpace=wrap;" vertex="1" parent="Z_P1tSKo5s2avDaVLByz-11">
          <mxGeometry y="29" width="140" height="41" as="geometry" />
        </mxCell>
        <mxCell id="Z_P1tSKo5s2avDaVLByz-19" style="edgeStyle=orthogonalEdgeStyle;rounded=0;orthogonalLoop=1;jettySize=auto;html=1;" edge="1" parent="1" source="Z_P1tSKo5s2avDaVLByz-13" target="Z_P1tSKo5s2avDaVLByz-5">
          <mxGeometry relative="1" as="geometry">
            <Array as="points">
              <mxPoint x="-70" y="290" />
              <mxPoint x="120" y="290" />
            </Array>
          </mxGeometry>
        </mxCell>
        <mxCell id="Z_P1tSKo5s2avDaVLByz-13" value="TermFilter" style="swimlane;fontStyle=1;align=center;verticalAlign=middle;childLayout=stackLayout;horizontal=1;startSize=29;horizontalStack=0;resizeParent=1;resizeParentMax=0;resizeLast=0;collapsible=0;marginBottom=0;html=1;whiteSpace=wrap;" vertex="1" parent="1">
          <mxGeometry x="-140" y="344" width="140" height="70" as="geometry" />
        </mxCell>
        <mxCell id="Z_P1tSKo5s2avDaVLByz-14" value="+hasNext()&lt;br&gt;+next()" style="text;html=1;strokeColor=none;fillColor=none;align=left;verticalAlign=middle;spacingLeft=4;spacingRight=4;overflow=hidden;rotatable=0;points=[[0,0.5],[1,0.5]];portConstraint=eastwest;whiteSpace=wrap;" vertex="1" parent="Z_P1tSKo5s2avDaVLByz-13">
          <mxGeometry y="29" width="140" height="41" as="geometry" />
        </mxCell>
        <mxCell id="Z_P1tSKo5s2avDaVLByz-21" style="edgeStyle=orthogonalEdgeStyle;rounded=0;orthogonalLoop=1;jettySize=auto;html=1;" edge="1" parent="1" source="Z_P1tSKo5s2avDaVLByz-15" target="Z_P1tSKo5s2avDaVLByz-5">
          <mxGeometry relative="1" as="geometry">
            <Array as="points">
              <mxPoint x="362" y="320" />
              <mxPoint x="190" y="320" />
            </Array>
          </mxGeometry>
        </mxCell>
        <mxCell id="Z_P1tSKo5s2avDaVLByz-15" value="VowelFilter" style="swimlane;fontStyle=1;align=center;verticalAlign=middle;childLayout=stackLayout;horizontal=1;startSize=29;horizontalStack=0;resizeParent=1;resizeParentMax=0;resizeLast=0;collapsible=0;marginBottom=0;html=1;whiteSpace=wrap;" vertex="1" parent="1">
          <mxGeometry x="292" y="344" width="140" height="70" as="geometry" />
        </mxCell>
        <mxCell id="Z_P1tSKo5s2avDaVLByz-16" value="+hasNext()&lt;br&gt;+next()" style="text;html=1;strokeColor=none;fillColor=none;align=left;verticalAlign=middle;spacingLeft=4;spacingRight=4;overflow=hidden;rotatable=0;points=[[0,0.5],[1,0.5]];portConstraint=eastwest;whiteSpace=wrap;" vertex="1" parent="Z_P1tSKo5s2avDaVLByz-15">
          <mxGeometry y="29" width="140" height="41" as="geometry" />
        </mxCell>
        <mxCell id="Z_P1tSKo5s2avDaVLByz-22" style="edgeStyle=orthogonalEdgeStyle;rounded=0;orthogonalLoop=1;jettySize=auto;html=1;entryX=0.887;entryY=0.976;entryDx=0;entryDy=0;entryPerimeter=0;" edge="1" parent="1" source="Z_P1tSKo5s2avDaVLByz-17" target="Z_P1tSKo5s2avDaVLByz-5">
          <mxGeometry relative="1" as="geometry" />
        </mxCell>
        <mxCell id="Z_P1tSKo5s2avDaVLByz-17" value="CapitalizationFilter" style="swimlane;fontStyle=1;align=center;verticalAlign=middle;childLayout=stackLayout;horizontal=1;startSize=29;horizontalStack=0;resizeParent=1;resizeParentMax=0;resizeLast=0;collapsible=0;marginBottom=0;html=1;whiteSpace=wrap;" vertex="1" parent="1">
          <mxGeometry x="520" y="344" width="140" height="70" as="geometry" />
        </mxCell>
        <mxCell id="Z_P1tSKo5s2avDaVLByz-18" value="+hasNext()&lt;br&gt;+next()" style="text;html=1;strokeColor=none;fillColor=none;align=left;verticalAlign=middle;spacingLeft=4;spacingRight=4;overflow=hidden;rotatable=0;points=[[0,0.5],[1,0.5]];portConstraint=eastwest;whiteSpace=wrap;" vertex="1" parent="Z_P1tSKo5s2avDaVLByz-17">
          <mxGeometry y="29" width="140" height="41" as="geometry" />
        </mxCell>
        <mxCell id="Z_P1tSKo5s2avDaVLByz-24" value="1" style="text;html=1;align=center;verticalAlign=middle;resizable=0;points=[];autosize=1;strokeColor=none;fillColor=none;" vertex="1" parent="1">
          <mxGeometry x="190" y="95" width="30" height="30" as="geometry" />
        </mxCell>
      </root>
    </mxGraphModel>
  </diagram>
</mxfile>
